<?xml version="1.0" encoding="utf-8"?>
<!-- Generator: Adobe Illustrator 26.0.3, SVG Export Plug-In . SVG Version: 6.00 Build 0)  -->
<svg version="1.1" xmlns="http://www.w3.org/2000/svg" xmlns:xlink="http://www.w3.org/1999/xlink" x="0px" y="0px"
	 viewBox="0 0 269.5 54.9" style="enable-background:new 0 0 269.5 54.9;" xml:space="preserve">
<style type="text/css">
	.st0{fill:#ffffff;}
	.st1{display:none;}
</style>
<g id="Sekundær">
	<g>
		<path class="st0" d="M38.6,32.5v-5.2c0-0.3-0.2-0.5-0.5-0.5c-0.3,0-0.5,0.2-0.5,0.5V32h-6.5c-0.3,0-0.5,0.2-0.5,0.5v5.8H23V25.5
			h8.9c0.3,0,0.5-0.2,0.5-0.5v-4.8c0-0.3-0.2-0.5-0.5-0.5c-0.3,0-0.5,0.2-0.5,0.5v4.3H23V13.4h5c0.3,0,0.5-0.2,0.5-0.5
			s-0.2-0.5-0.5-0.5h-5V3.1h7.7c0.3,0,0.5-0.2,0.5-0.5s-0.2-0.5-0.5-0.5h-8.1h-8.1c-0.3,0-0.5,0.2-0.5,0.5s0.2,0.5,0.5,0.5H22v9.3
			h-5.2c-0.3,0-0.5,0.2-0.5,0.5s0.2,0.5,0.5,0.5H22v11.1h-8.4v-4.3c0-0.3-0.2-0.5-0.5-0.5s-0.5,0.2-0.5,0.5V25
			c0,0.3,0.2,0.5,0.5,0.5H22v12.8h-7.7v-5.8c0-0.3-0.2-0.5-0.5-0.5H7.4v-4.7c0-0.3-0.2-0.5-0.5-0.5c-0.3,0-0.5,0.2-0.5,0.5v5.2
			c0,0.3,0.2,0.5,0.5,0.5h6.5v14.6c0,0.3,0.2,0.5,0.5,0.5c0.3,0,0.5-0.2,0.5-0.5v-8.3H22v14.6h-6.3c-0.3,0-0.5,0.2-0.5,0.5
			c0,0.3,0.2,0.5,0.5,0.5h6.8h6.8c0.3,0,0.5-0.2,0.5-0.5c0-0.3-0.2-0.5-0.5-0.5H23V39.3h7.7v8.3c0,0.3,0.2,0.5,0.5,0.5
			c0.3,0,0.5-0.2,0.5-0.5V33h6.5C38.4,33,38.6,32.8,38.6,32.5z"/>
		<path class="st0" d="M44.5,22.9c-0.3,0-0.5,0.2-0.5,0.5v19.4h-8.5c-0.3,0-0.5,0.2-0.5,0.5s0.2,0.5,0.5,0.5h9
			c0.3,0,0.5-0.2,0.5-0.5V23.4C45,23.2,44.8,22.9,44.5,22.9z"/>
		<path class="st0" d="M33.8,8.1H41v9.6h-5.5c-0.3,0-0.5,0.2-0.5,0.5c0,0.3,0.2,0.5,0.5,0.5h5.9c0.3,0,0.5-0.2,0.5-0.5V7.6
			c0-0.3-0.2-0.5-0.5-0.5h-7.6c-0.3,0-0.5,0.2-0.5,0.5C33.3,7.9,33.5,8.1,33.8,8.1z"/>
		<path class="st0" d="M39.8,50.6h-4.3c-0.3,0-0.5,0.2-0.5,0.5s0.2,0.5,0.5,0.5h4.3c0.3,0,0.5-0.2,0.5-0.5S40.1,50.6,39.8,50.6z"/>
		<path class="st0" d="M9.5,42.8H1V23.4c0-0.3-0.2-0.5-0.5-0.5S0,23.2,0,23.4v19.9c0,0.3,0.2,0.5,0.5,0.5h9c0.3,0,0.5-0.2,0.5-0.5
			S9.8,42.8,9.5,42.8z"/>
		<path class="st0" d="M3.6,18.7h5.9c0.3,0,0.5-0.2,0.5-0.5c0-0.3-0.2-0.5-0.5-0.5H4.1V8.1h7.1c0.3,0,0.5-0.2,0.5-0.5
			c0-0.3-0.2-0.5-0.5-0.5H3.6c-0.3,0-0.5,0.2-0.5,0.5v10.6C3.1,18.5,3.3,18.7,3.6,18.7z"/>
		<path class="st0" d="M9.5,50.6H5.2c-0.3,0-0.5,0.2-0.5,0.5s0.2,0.5,0.5,0.5h4.3c0.3,0,0.5-0.2,0.5-0.5S9.8,50.6,9.5,50.6z"/>
	</g>
	<g>
		<path class="st0" d="M59.9,29.7h-3.8V10.2h3.7V13c1.4-2.4,3.7-3.4,6-3.4c4.7,0,7,3.4,7,7.7v12.4H69V18c0-2.7-1.1-4.9-4.6-4.9
			c-3,0-4.6,2.4-4.6,5.4V29.7z"/>
		<path class="st0" d="M95.5,24.2c-1.1,3.5-4.2,6.2-8.8,6.2c-5.2,0-9.8-3.8-9.8-10.4c0-6.1,4.4-10.3,9.4-10.3c6,0,9.4,4.1,9.4,10.2
			c0,0.5,0,1-0.1,1.2H80.8c0.1,3.5,2.6,5.9,5.9,5.9c3.2,0,4.8-1.7,5.5-3.9L95.5,24.2z M91.6,17.9c-0.1-2.8-1.9-5-5.4-5
			c-3.2,0-5.2,2.5-5.3,5H91.6z"/>
		<path class="st0" d="M107.1,30.3c-4.6,0-7.3-3.4-7.3-7.8V10.2h3.8v11.8c0,2.7,1.2,5,4.4,5c3.1,0,4.6-2,4.6-5V10.2h3.8v15.9
			c0,1.5,0.1,2.9,0.2,3.6H113c-0.1-0.4-0.2-1.5-0.2-2.4C111.8,29.4,109.4,30.3,107.1,30.3z"/>
		<path class="st0" d="M132.9,14c-0.6-0.1-1.1-0.1-1.7-0.1c-3.2,0-5.4,1.7-5.4,6v9.8h-3.8V10.2h3.7v3.4c1.4-3,3.9-3.7,5.9-3.7
			c0.5,0,1.1,0.1,1.3,0.1V14z"/>
		<path class="st0" d="M154.9,19.9c0,6-4.1,10.4-10,10.4c-5.9,0-10-4.4-10-10.4c0-5.9,4.1-10.4,10-10.4
			C150.8,9.6,154.9,14,154.9,19.9z M151,19.9c0-4.5-2.8-7-6.1-7c-3.3,0-6.1,2.4-6.1,7c0,4.6,2.8,7,6.1,7
			C148.2,26.9,151,24.5,151,19.9z"/>
		<path class="st0" d="M164.4,10.2h4.2v3.5h-4.2v10.2c0,1.8,0.7,2.7,2.7,2.7c0.5,0,1.2-0.1,1.5-0.2v3.3c-0.3,0.1-1.3,0.4-2.6,0.4
			c-3.3,0-5.4-2-5.4-5.6V13.6h-3.7v-3.5h1.1c2.1,0,3-1.3,3-3V4h3.5V10.2z"/>
		<path class="st0" d="M190.9,19.9c0,6-4.1,10.4-10,10.4s-10-4.4-10-10.4c0-5.9,4.1-10.4,10-10.4S190.9,14,190.9,19.9z M187,19.9
			c0-4.5-2.8-7-6.1-7c-3.3,0-6.1,2.4-6.1,7c0,4.6,2.8,7,6.1,7C184.1,26.9,187,24.5,187,19.9z"/>
		<path class="st0" d="M206,14c-0.6-0.1-1.1-0.1-1.7-0.1c-3.2,0-5.4,1.7-5.4,6v9.8h-3.8V10.2h3.7v3.4c1.4-3,3.9-3.7,5.9-3.7
			c0.5,0,1.1,0.1,1.3,0.1V14z"/>
		<path class="st0" d="M211.2,0c1.5,0,2.8,1.2,2.8,2.8c0,1.5-1.2,2.7-2.8,2.7c-1.5,0-2.7-1.2-2.7-2.7C208.5,1.2,209.7,0,211.2,0z
			 M209.4,29.7V10.2h3.8v19.6H209.4z"/>
		<path class="st0" d="M225.7,30.3c-4.6,0-7.3-3.4-7.3-7.8V10.2h3.8v11.8c0,2.7,1.2,5,4.4,5c3.1,0,4.6-2,4.6-5V10.2h3.8v15.9
			c0,1.5,0.1,2.9,0.2,3.6h-3.7c-0.1-0.4-0.2-1.5-0.2-2.4C230.4,29.4,228,30.3,225.7,30.3z"/>
		<path class="st0" d="M240.7,29.7V10.2h3.7v2.6c1.2-2.2,3.7-3.2,5.9-3.2c2.4,0,4.8,1.2,5.9,3.7c1.5-2.8,4.1-3.7,6.5-3.7
			c3.4,0,6.7,2.3,6.7,7.4v12.7h-3.8V17.4c0-2.6-1.3-4.5-4.1-4.5c-2.7,0-4.5,2.1-4.5,4.9v11.8h-3.8V17.4c0-2.5-1.2-4.5-4.1-4.5
			c-2.7,0-4.6,2-4.6,5v11.8H240.7z"/>
	</g>
	<g>
		<path class="st0" d="M56.1,46.9v-8.7h5.4v1.4h-3.9V42h3.5v1.4h-3.5v3.5H56.1z"/>
		<path class="st0" d="M68.6,43.9c0,1.8-1.3,3.2-3.1,3.2c-1.8,0-3.1-1.3-3.1-3.2c0-1.8,1.3-3.2,3.1-3.2C67.2,40.7,68.6,42,68.6,43.9
			z M67.1,43.9c0-1.2-0.8-1.9-1.7-1.9c-0.9,0-1.7,0.6-1.7,1.9s0.8,1.9,1.7,1.9C66.3,45.8,67.1,45.1,67.1,43.9z"/>
		<path class="st0" d="M72.2,47c-1.4,0-2.3-1.1-2.3-2.4v-3.8h1.4v3.5c0,0.7,0.3,1.4,1.2,1.4c0.8,0,1.3-0.6,1.3-1.3v-3.5h1.4v4.9
			c0,0.5,0,0.9,0.1,1.1h-1.4c0-0.1,0-0.4,0-0.7C73.6,46.8,72.9,47,72.2,47z"/>
		<path class="st0" d="M78.4,46.9H77v-6h1.4v0.8c0.4-0.7,1.1-1,1.8-1c1.5,0,2.2,1.1,2.2,2.4v3.8h-1.4v-3.5c0-0.7-0.3-1.3-1.2-1.3
			c-0.8,0-1.2,0.6-1.2,1.4V46.9z"/>
		<path class="st0" d="M89.7,45.8c0,0.5,0,1,0.1,1.1h-1.4c0-0.1-0.1-0.5-0.1-0.8C88,46.6,87.4,47,86.6,47c-1.7,0-2.9-1.4-2.9-3.2
			c0-1.7,1.2-3.1,2.9-3.1c1,0,1.6,0.5,1.8,0.9V38h1.4V45.8z M86.7,45.8c0.9,0,1.6-0.8,1.6-1.9S87.7,42,86.7,42
			c-0.9,0-1.6,0.7-1.6,1.9S85.7,45.8,86.7,45.8z"/>
		<path class="st0" d="M96.9,45.2c-0.3,1-1.3,1.9-2.7,1.9c-1.6,0-3.1-1.2-3.1-3.2c0-1.9,1.4-3.1,2.9-3.1c1.8,0,2.9,1.2,2.9,3.1
			c0,0.2,0,0.4,0,0.5h-4.4c0,0.9,0.8,1.6,1.6,1.6c0.9,0,1.3-0.5,1.5-1L96.9,45.2z M95.5,43.2c0-0.7-0.5-1.3-1.5-1.3
			c-0.9,0-1.4,0.7-1.5,1.3H95.5z"/>
		<path class="st0" d="M104,45.8c0,0.5,0,1,0.1,1.1h-1.4c0-0.1-0.1-0.5-0.1-0.8c-0.3,0.5-0.9,0.9-1.8,0.9c-1.7,0-2.9-1.4-2.9-3.2
			c0-1.7,1.2-3.1,2.9-3.1c1,0,1.6,0.5,1.8,0.9V38h1.4V45.8z M101,45.8c0.9,0,1.6-0.8,1.6-1.9S101.9,42,101,42
			c-0.9,0-1.6,0.7-1.6,1.9S100,45.8,101,45.8z"/>
		<path class="st0" d="M109.1,46.9V38h1.4v3.7c0.3-0.5,1-0.9,1.9-0.9c1.8,0,2.8,1.4,2.8,3.1c0,1.8-1.1,3.2-2.8,3.2
			c-0.8,0-1.5-0.4-1.8-0.9v0.8H109.1z M112.1,42c-0.9,0-1.6,0.7-1.6,1.9c0,1.2,0.7,1.9,1.6,1.9c0.9,0,1.6-0.7,1.6-1.9
			C113.7,42.7,113,42,112.1,42z"/>
		<path class="st0" d="M116.6,49.3l1.4-3.1l-2.6-5.3h1.6l1.7,3.8l1.6-3.8h1.5l-3.8,8.4H116.6z"/>
		<path class="st0" d="M128.1,40.9h1.2v1.3h-1.2v2.8c0,0.5,0.2,0.8,0.8,0.8c0.2,0,0.4,0,0.5,0v1.2c-0.1,0-0.4,0.1-0.9,0.1
			c-1.1,0-1.8-0.7-1.8-1.8v-3h-1.1v-1.3h0.3c0.6,0,0.9-0.4,0.9-0.9v-0.9h1.3V40.9z"/>
		<path class="st0" d="M132.2,46.9h-1.4V38h1.4v3.5c0.4-0.5,1.1-0.8,1.7-0.8c1.5,0,2.2,1.1,2.2,2.4v3.8h-1.4v-3.5
			c0-0.7-0.3-1.3-1.2-1.3c-0.8,0-1.2,0.6-1.2,1.4V46.9z"/>
		<path class="st0" d="M143.2,45.2c-0.3,1-1.3,1.9-2.7,1.9c-1.6,0-3.1-1.2-3.1-3.2c0-1.9,1.4-3.1,2.9-3.1c1.8,0,2.9,1.2,2.9,3.1
			c0,0.2,0,0.4,0,0.5h-4.4c0,0.9,0.8,1.6,1.6,1.6c0.9,0,1.3-0.5,1.5-1L143.2,45.2z M141.8,43.2c0-0.7-0.5-1.3-1.5-1.3
			c-0.9,0-1.4,0.7-1.5,1.3H141.8z"/>
		<path class="st0" d="M148,46.9v-8.7h1.5v7.3h4v1.4H148z"/>
		<path class="st0" d="M156.8,47c-1.4,0-2.3-1.1-2.3-2.4v-3.8h1.4v3.5c0,0.7,0.3,1.4,1.2,1.4c0.8,0,1.3-0.6,1.3-1.3v-3.5h1.4v4.9
			c0,0.5,0,0.9,0.1,1.1h-1.4c0-0.1,0-0.4,0-0.7C158.2,46.8,157.5,47,156.8,47z"/>
		<path class="st0" d="M163.1,46.9h-1.4v-6h1.4v0.8c0.4-0.7,1.1-1,1.8-1c1.5,0,2.2,1.1,2.2,2.4v3.8h-1.4v-3.5c0-0.7-0.3-1.3-1.2-1.3
			c-0.8,0-1.2,0.6-1.2,1.4V46.9z"/>
		<path class="st0" d="M174.4,45.8c0,0.5,0,1,0.1,1.1h-1.4c0-0.1-0.1-0.5-0.1-0.8c-0.3,0.5-0.9,0.9-1.8,0.9c-1.7,0-2.9-1.4-2.9-3.2
			c0-1.7,1.2-3.1,2.9-3.1c1,0,1.6,0.5,1.8,0.9V38h1.4V45.8z M171.4,45.8c0.9,0,1.6-0.8,1.6-1.9s-0.6-1.9-1.6-1.9
			c-0.9,0-1.6,0.7-1.6,1.9S170.4,45.8,171.4,45.8z"/>
		<path class="st0" d="M176.2,46.9V38h1.4v3.7c0.3-0.5,1-0.9,1.9-0.9c1.8,0,2.8,1.4,2.8,3.1c0,1.8-1.1,3.2-2.8,3.2
			c-0.8,0-1.5-0.4-1.8-0.9v0.8H176.2z M179.2,42c-0.9,0-1.6,0.7-1.6,1.9c0,1.2,0.7,1.9,1.6,1.9c0.9,0,1.6-0.7,1.6-1.9
			C180.8,42.7,180.1,42,179.2,42z"/>
		<path class="st0" d="M189,45.2c-0.3,1-1.3,1.9-2.7,1.9c-1.6,0-3.1-1.2-3.1-3.2c0-1.9,1.4-3.1,2.9-3.1c1.8,0,2.9,1.2,2.9,3.1
			c0,0.2,0,0.4,0,0.5h-4.4c0,0.9,0.8,1.6,1.6,1.6c0.9,0,1.3-0.5,1.5-1L189,45.2z M187.7,43.2c0-0.7-0.5-1.3-1.5-1.3
			c-0.9,0-1.4,0.7-1.5,1.3H187.7z"/>
		<path class="st0" d="M191.6,43.9c0,1.2,0.8,1.9,1.7,1.9c0.9,0,1.4-0.7,1.5-1.1l1.3,0.5c-0.3,0.9-1.2,2-2.8,2
			c-1.8,0-3.1-1.4-3.1-3.2c0-1.8,1.3-3.2,3.1-3.2c1.6,0,2.5,1,2.7,2l-1.3,0.5c-0.1-0.5-0.5-1.1-1.5-1.1
			C192.3,42,191.6,42.7,191.6,43.9z"/>
		<path class="st0" d="M200.4,43.4l2.5,3.5h-1.7l-1.8-2.4l-0.7,0.8v1.7h-1.4V38h1.4v5.3l2.3-2.4h1.9L200.4,43.4z"/>
		<path class="st0" d="M207.3,46.9v-8.7h5.4v1.4h-3.9V42h3.5v1.4h-3.5v3.5H207.3z"/>
		<path class="st0" d="M219.8,43.9c0,1.8-1.3,3.2-3.1,3.2c-1.8,0-3.1-1.3-3.1-3.2c0-1.8,1.3-3.2,3.1-3.2
			C218.4,40.7,219.8,42,219.8,43.9z M218.3,43.9c0-1.2-0.8-1.9-1.7-1.9c-0.9,0-1.7,0.6-1.7,1.9s0.8,1.9,1.7,1.9
			C217.5,45.8,218.3,45.1,218.3,43.9z"/>
		<path class="st0" d="M223.4,47c-1.4,0-2.3-1.1-2.3-2.4v-3.8h1.4v3.5c0,0.7,0.3,1.4,1.2,1.4c0.8,0,1.3-0.6,1.3-1.3v-3.5h1.4v4.9
			c0,0.5,0,0.9,0.1,1.1h-1.4c0-0.1,0-0.4,0-0.7C224.8,46.8,224.1,47,223.4,47z"/>
		<path class="st0" d="M229.6,46.9h-1.4v-6h1.4v0.8c0.4-0.7,1.1-1,1.8-1c1.5,0,2.2,1.1,2.2,2.4v3.8h-1.4v-3.5c0-0.7-0.3-1.3-1.2-1.3
			c-0.8,0-1.2,0.6-1.2,1.4V46.9z"/>
		<path class="st0" d="M240.9,45.8c0,0.5,0,1,0.1,1.1h-1.4c0-0.1-0.1-0.5-0.1-0.8c-0.3,0.5-0.9,0.9-1.8,0.9c-1.7,0-2.9-1.4-2.9-3.2
			c0-1.7,1.2-3.1,2.9-3.1c1,0,1.6,0.5,1.8,0.9V38h1.4V45.8z M237.9,45.8c0.9,0,1.6-0.8,1.6-1.9s-0.6-1.9-1.6-1.9s-1.6,0.7-1.6,1.9
			S236.9,45.8,237.9,45.8z"/>
		<path class="st0" d="M244.2,43.4l1.5-0.2c0.3,0,0.4-0.2,0.4-0.4c0-0.5-0.3-0.9-1.1-0.9c-0.8,0-1.2,0.5-1.2,1.1l-1.3-0.3
			c0.1-1,1-2,2.5-2c1.8,0,2.5,1,2.5,2.2v3c0,0.5,0.1,0.9,0.1,1h-1.3c0,0-0.1-0.3-0.1-0.8c-0.3,0.5-0.9,0.9-1.8,0.9
			c-1.3,0-2-0.9-2-1.8C242.4,44.2,243.1,43.6,244.2,43.4z M246.1,44.4v-0.3l-1.6,0.2c-0.4,0.1-0.8,0.3-0.8,0.8
			c0,0.4,0.3,0.8,0.9,0.8C245.5,45.9,246.1,45.6,246.1,44.4z"/>
		<path class="st0" d="M251.1,40.9h1.2v1.3h-1.2v2.8c0,0.5,0.2,0.8,0.8,0.8c0.2,0,0.4,0,0.5,0v1.2c-0.1,0-0.4,0.1-0.9,0.1
			c-1.1,0-1.8-0.7-1.8-1.8v-3h-1.1v-1.3h0.3c0.6,0,0.9-0.4,0.9-0.9v-0.9h1.3V40.9z"/>
		<path class="st0" d="M254.4,37.8c0.5,0,0.9,0.4,0.9,0.9c0,0.5-0.4,0.9-0.9,0.9c-0.5,0-0.9-0.4-0.9-0.9
			C253.5,38.3,253.9,37.8,254.4,37.8z M253.7,46.9v-6h1.4v6H253.7z"/>
		<path class="st0" d="M262.7,43.9c0,1.8-1.3,3.2-3.1,3.2c-1.8,0-3.1-1.3-3.1-3.2c0-1.8,1.3-3.2,3.1-3.2
			C261.4,40.7,262.7,42,262.7,43.9z M261.2,43.9c0-1.2-0.8-1.9-1.7-1.9c-0.9,0-1.7,0.6-1.7,1.9s0.8,1.9,1.7,1.9
			C260.4,45.8,261.2,45.1,261.2,43.9z"/>
		<path class="st0" d="M265.5,46.9h-1.4v-6h1.4v0.8c0.4-0.7,1.1-1,1.8-1c1.5,0,2.2,1.1,2.2,2.4v3.8H268v-3.5c0-0.7-0.3-1.3-1.2-1.3
			c-0.8,0-1.2,0.6-1.2,1.4V46.9z"/>
	</g>
</g>
</svg>
