<?xml version="1.0" encoding="UTF-8"?><svg id="uuid-8d79c69f-185a-4613-a64b-9a15561641b7" xmlns="http://www.w3.org/2000/svg" xmlns:xlink="http://www.w3.org/1999/xlink" viewBox="0 0 106.79 20"><defs><linearGradient id="uuid-e1e1c384-ceae-41f6-806c-3514757a5f6b" x1="16.5" y1="-1554.16" x2="19.81" y2="-1554.16" gradientTransform="translate(0 -1545.06) scale(1 -1)" gradientUnits="userSpaceOnUse"><stop offset="0" stop-color="#0078db"/><stop offset="1" stop-color="#00ccf9"/></linearGradient><linearGradient id="uuid-b26c9fca-05f3-4a70-8a83-8c5d520c50cf" x1="20.77" y1="-1554.16" x2="24.07" y2="-1554.16" gradientTransform="translate(0 -1545.06) scale(1 -1)" gradientUnits="userSpaceOnUse"><stop offset="0" stop-color="#00ccf9"/><stop offset="1" stop-color="#0078db"/></linearGradient><linearGradient id="uuid-af53455c-6abd-4f69-b9cd-911b31df3f5d" x1="16.5" y1="12.24" x2="19.81" y2="12.24" gradientUnits="userSpaceOnUse"><stop offset="0" stop-color="#0155a2"/><stop offset="1" stop-color="#0078db"/></linearGradient><linearGradient id="uuid-4c9b7b1c-7d68-4ef4-8fe4-aaa646873635" x1="20.77" y1="12.24" x2="24.07" y2="12.24" gradientUnits="userSpaceOnUse"><stop offset="0" stop-color="#0078db"/><stop offset="1" stop-color="#0155a2"/></linearGradient></defs><path d="m74.78,7.73v8.76c0,.24-.09.45-.26.62-.17.17-.38.26-.62.26h-9.91c-.24,0-.45-.09-.62-.26s-.26-.38-.26-.62V4.24c0-.24.08-.45.26-.62.17-.16.38-.25.62-.25h6.42c.24,0,.51.06.8.18.29.12.52.27.69.44l2.25,2.25c.17.17.31.4.44.69.12.29.18.56.18.8h0Zm-10.49,8.47h9.32v-7.6h-3.19c-.24,0-.45-.09-.62-.25-.17-.17-.26-.38-.26-.62v-3.2h-5.26v11.67h.01Zm6.42-8.77h2.83c-.06-.18-.13-.3-.2-.37l-2.26-2.25c-.07-.07-.2-.14-.37-.2v2.83h0Z" style="fill:#b6b7b7;"/><path d="m72.43,11.79c-.23-.33-.73-.45-1.55-.38-.12.01-.23.03-.36.05-.12.03-.24.06-.28.08-.15-.06-.25-.12-.49-.26-.39-.33-.73-.79-.97-1.25.25-1.17.17-1.92-.31-2.31-.13-.06-.29-.11-.57-.09-.36.03-.57.38-.62.68-.17.88,0,1.31.23,2.06-.11.47-.22.97-.42,1.48l-.26.58c-.08.18-.15.34-.14.39-.13.08-.25.17-.5.34-.69.48-1.04,1.08-1.08,1.5,0,.13.02.22.18.47l.21.17c.12.09.3.09.47.08.57-.05,1.09-.66,1.77-2.04.64-.23,1.18-.4,2.04-.61.65.25,1.38.3,1.85.26.27-.02.44-.08.61-.2.2-.14.26-.35.29-.52.03-.21-.04-.35-.12-.5l.02.02Zm-6.67,2.88c.04-.17.3-.59.66-.98.05-.06.16-.13.27-.19-.28.71-.59,1.09-.93,1.17Zm2.55-3.4c.17.24.38.49.62.74-.31.09-.66.23-1.01.38,0,0,.33-.94.39-1.12Zm-.37-3.09c0-.07.05-.09.05-.09l.07.02.09.07c.06.05.08.19.05.48l-.05.29c-.02.19-.04.26-.09.45-.16-.5-.2-.87-.11-1.23h-.01Zm3.99,4.11h-.17c-.29.04-.7-.03-1.11-.18l-.06-.05.16-.02c.8-.07,1.05.08,1.11.14.03.01.06.05.06.05v.05h0Z" style="fill:#cb2026;"/><path d="m90.99,7.54v8.76c0,.24-.09.45-.26.62-.17.17-.38.26-.62.26h-9.91c-.24,0-.45-.09-.62-.26-.17-.17-.26-.38-.26-.62V4.06c0-.24.08-.45.26-.62.17-.16.38-.25.62-.25h6.42c.24,0,.51.06.8.18.29.12.52.27.69.44l2.25,2.25c.17.17.31.4.44.69.12.29.18.56.18.8h0Zm-10.49,8.47h9.32v-7.6h-3.19c-.24,0-.45-.09-.62-.25-.17-.17-.26-.38-.26-.62v-3.2h-5.26v11.67h.01Zm6.42-8.77h2.83c-.06-.18-.13-.3-.2-.37l-2.26-2.25c-.07-.07-.2-.14-.37-.2v2.83h0Z" style="fill:#b6b7b7;"/><path d="m106.79,7.54v8.76c0,.24-.09.45-.26.62-.17.17-.38.26-.62.26h-9.91c-.24,0-.45-.09-.62-.26-.17-.17-.26-.38-.26-.62V4.06c0-.24.08-.45.26-.62.17-.16.38-.25.62-.25h6.42c.24,0,.51.06.8.18.29.12.52.27.69.44l2.25,2.25c.17.17.31.4.44.69.12.29.18.56.18.8h0Zm-10.49,8.47h9.32v-7.6h-3.19c-.24,0-.45-.09-.62-.25-.17-.17-.26-.38-.26-.62v-3.2h-5.26v11.67h.01Zm6.42-8.77h2.83c-.06-.18-.13-.3-.2-.37l-2.26-2.25c-.07-.07-.2-.14-.37-.2v2.83h0Z" style="fill:#b6b7b7;"/><path d="m98.95,9.13c.2.2.3.44.3.73s-.1.53-.3.73c-.2.2-.44.3-.73.3s-.53-.1-.73-.3c-.2-.2-.3-.44-.3-.73s.1-.53.3-.73c.2-.2.44-.3.73-.3s.53.1.73.3Zm5.77,2.78v3.17h-7.53v-1.81l1.71-1.71.86.86,2.74-2.74,2.22,2.22h0Z" style="fill:#2075bc;"/><path d="m83.94,10.14c0-.07-.02-.13-.07-.18l-.2-.22c-.1-.11-.26-.11-.37,0l-1.82,2.05c-.05.05-.07.12-.07.18s.02.13.07.18l1.82,2.05c.05.06.11.09.18.09s.13-.03.18-.09l.2-.22h0c.05-.05.07-.12.07-.18s-.02-.13-.07-.18l-1.46-1.65,1.46-1.65c.05-.05.07-.12.07-.18h.01Zm-.16-.1h0Z" style="fill:#154985;"/><path d="m86.03,8.92l-.24-.07c-.07-.02-.14-.01-.2.02-.06.04-.1.09-.12.16l-1.46,5.68c-.02.07-.01.14.02.2.03.06.08.11.15.13l.23.07s.05.01.08.01c.04,0,.09-.01.12-.04.06-.04.09-.09.11-.16l1.46-5.68c.02-.07.01-.14-.02-.19-.03-.06-.08-.11-.15-.13h.02Z" style="fill:#154985;"/><path d="m88.74,11.79l-1.82-2.05c-.1-.11-.26-.11-.37,0l-.2.22c-.05.05-.07.12-.07.18s.02.13.07.18l1.46,1.65-1.46,1.65c-.05.05-.07.12-.07.18s.02.13.07.18l.19.22c.05.06.11.09.18.09s.13-.03.18-.09l1.82-2.05c.05-.05.07-.11.07-.18s-.02-.13-.07-.18h.02Z" style="fill:#154985;"/><path d="m28.26,5.1v14c0,.25-.09.46-.26.64-.17.17-.39.26-.64.26h-14.2c-.25,0-.46-.09-.64-.26-.17-.17-.26-.39-.26-.64V.9c0-.25.09-.46.26-.64.17-.17.39-.26.64-.26h10c.25,0,.53.06.83.19.3.13.54.28.71.45l2.93,2.93c.17.17.32.41.45.71.13.3.19.58.19.83h-.01Zm-14.8,13.7h13.6V6h-3.9c-.25,0-.46-.09-.64-.26-.17-.17-.26-.39-.26-.64V1.2h-8.8v17.6Zm10-14h3.53c-.06-.18-.13-.31-.21-.38l-2.93-2.93c-.08-.08-.2-.14-.38-.21v3.53h-.01Z" style="fill:#b6b7b7;"/><path d="m53.1,10.53c0,.51-.41.92-.92.92s-.92-.41-.92-.92.41-.92.92-.92.92.41.92.92Z" style="fill:#0298ff;"/><path d="m57.3,10.53c0,.51-.41.92-.92.92s-.92-.41-.92-.92.41-.92.92-.92.92.41.92.92Z" style="fill:#0298ff;"/><path d="m36.53,10.53c0,.51-.41.92-.92.92s-.92-.41-.92-.92.41-.92.92-.92.92.41.92.92Z" style="fill:#0298ff;"/><path d="m40.73,10.53c0,.51-.41.92-.92.92s-.92-.41-.92-.92.41-.92.92-.92.92.41.92.92Z" style="fill:#0298ff;"/><path d="m44.91,10.53c0,.51-.41.92-.92.92s-.92-.41-.92-.92.41-.92.92-.92.92.41.92.92Z" style="fill:#0298ff;"/><path d="m49.11,10.53c0,.51-.41.92-.92.92s-.92-.41-.92-.92.41-.92.92-.92.92.41.92.92Z" style="fill:#0298ff;"/><rect x="7.4" y="1.2" width="3.8" height="17.6" style="fill:none;"/><path d="m7.4,18.8V1.2h3.8V0h-4.1c-.25,0-.47.09-.64.26-.17.17-.26.39-.26.64v18.2c0,.25.09.46.26.64.17.17.39.26.64.26h4.1v-1.2s-3.8,0-3.8,0Z" style="fill:#b6b7b7;"/><rect x="1.2" y="1.2" width="3.8" height="17.6" style="fill:none;"/><path d="m1.2,18.8V1.2h3.8V0H.9c-.25,0-.46.09-.64.26-.17.17-.26.39-.26.64v18.2c0,.25.09.46.26.64.17.17.39.26.64.26h4.1v-1.2H1.2Z" style="fill:#b6b7b7;"/><path d="m18.13,10.42l-1.21.97c-.17.13-.41.01-.41-.2v-1.71c0-.23.11-.45.29-.6l2.61-2.07c.17-.13.41-.01.41.2v1.71c0,.23-.11.46-.29.6l-1.39,1.09Z" style="fill:url(#uuid-e1e1c384-ceae-41f6-806c-3514757a5f6b);"/><path d="m22.45,10.42l-1.39-1.09c-.18-.15-.29-.37-.29-.6v-1.71c0-.21.25-.33.41-.2l2.61,2.07c.18.15.29.37.29.6v1.71c0,.21-.25.33-.41.2l-1.21-.97Z" style="fill:url(#uuid-b26c9fca-05f3-4a70-8a83-8c5d520c50cf);"/><path d="m18.13,10.93l-1.21-.97c-.17-.13-.41-.01-.41.2v1.71c0,.23.11.45.29.6l2.61,2.07c.17.13.41.01.41-.2v-1.71c0-.2-.13-.48-.29-.6l-1.39-1.09Z" style="fill:url(#uuid-af53455c-6abd-4f69-b9cd-911b31df3f5d);"/><path d="m22.45,10.93l-1.39,1.09c-.18.15-.29.37-.29.6v1.71c0,.21.25.33.41.2l2.61-2.07c.18-.15.29-.37.29-.6v-1.71c0-.21-.25-.33-.41-.2l-1.21.97Z" style="fill:url(#uuid-4c9b7b1c-7d68-4ef4-8fe4-aaa646873635);"/></svg>