<svg xmlns="http://www.w3.org/2000/svg" viewBox="0 0 1400 900" preserveAspectRatio="xMidYMid slice">
  <defs>
    <radialGradient id="bg" cx="50%" cy="20%" r="75%">
      <stop offset="0%" stop-color="#3a1510"/>
      <stop offset="45%" stop-color="#1e0f0b"/>
      <stop offset="100%" stop-color="#0b0908"/>
    </radialGradient>
    <radialGradient id="fireGlow" cx="50%" cy="50%" r="50%">
      <stop offset="0%" stop-color="#ffbe55" stop-opacity="0.95"/>
      <stop offset="45%" stop-color="#e46d1e" stop-opacity="0.55"/>
      <stop offset="100%" stop-color="#7f2d0f" stop-opacity="0"/>
    </radialGradient>
    <linearGradient id="hill1" x1="0" y1="0" x2="0" y2="1">
      <stop offset="0%" stop-color="#4a2418"/>
      <stop offset="100%" stop-color="#22120d"/>
    </linearGradient>
    <linearGradient id="hill2" x1="0" y1="0" x2="0" y2="1">
      <stop offset="0%" stop-color="#5a2b1b"/>
      <stop offset="100%" stop-color="#2b160f"/>
    </linearGradient>
    <filter id="softBlur" x="-25%" y="-25%" width="150%" height="150%">
      <feGaussianBlur stdDeviation="8"/>
    </filter>
  </defs>

  <rect width="1400" height="900" fill="url(#bg)"/>
  <ellipse cx="700" cy="380" rx="520" ry="210" fill="#5e2517" opacity="0.2" filter="url(#softBlur)"/>

  <path d="M0 640 C220 520 380 520 560 640 C740 760 980 740 1400 610 L1400 900 L0 900 Z" fill="url(#hill1)"/>
  <path d="M0 730 C180 620 400 630 620 720 C840 810 1080 790 1400 690 L1400 900 L0 900 Z" fill="url(#hill2)"/>

  <circle cx="690" cy="640" r="170" fill="url(#fireGlow)" opacity="0.9"/>
  <path d="M665 690 C705 605 750 598 718 690 C736 665 770 670 752 710 C722 770 650 770 626 716 C612 683 636 660 665 690 Z" fill="#ffb347" opacity="0.95"/>
  <path d="M694 705 C724 642 760 640 736 708 C754 690 777 694 764 724 C742 768 683 768 664 729 C652 704 670 686 694 705 Z" fill="#ff7a2f" opacity="0.9"/>

  <!-- Spiritual dance silhouettes -->
  <g fill="#1b0f0c" stroke="#da7f3d" stroke-opacity="0.55" stroke-width="5">
    <circle cx="520" cy="585" r="18"/>
    <path d="M520 604 L520 670 M520 632 L484 654 M520 632 L553 651 M520 669 L490 715 M520 669 L550 716"/>

    <circle cx="860" cy="580" r="18"/>
    <path d="M860 598 L860 668 M860 626 L826 646 M860 626 L896 648 M860 668 L833 712 M860 668 L890 714"/>

    <circle cx="760" cy="545" r="16"/>
    <path d="M760 561 L760 621 M760 588 L730 605 M760 588 L788 604 M760 621 L738 660 M760 621 L784 658"/>

    <circle cx="615" cy="550" r="16"/>
    <path d="M615 566 L615 626 M615 593 L588 613 M615 593 L642 612 M615 626 L595 665 M615 626 L637 664"/>
  </g>

  <!-- Tsodilo-like symbolic signs -->
  <g fill="none" stroke="#cf7b3a" stroke-width="5" stroke-linecap="round" stroke-linejoin="round" opacity="0.8">
    <path d="M210 350 L250 310 L290 350 L250 390 Z"/>
    <circle cx="250" cy="350" r="14"/>
    <path d="M1080 320 L1128 320 L1104 278 Z"/>
    <path d="M1042 365 L1086 404 L1132 365"/>
    <path d="M360 250 C390 222 430 222 458 250 C430 280 390 280 360 250 Z"/>
    <circle cx="1260" cy="260" r="24"/>
    <path d="M1232 260 L1288 260 M1260 232 L1260 288"/>
  </g>
</svg>
